<svg version="1.1" xmlns="http://www.w3.org/2000/svg" xmlns:xlink="http://www.w3.org/1999/xlink" width="141.41463" height="157.3042" viewBox="0,0,141.41463,157.3042"><g transform="translate(-169.24625,-69.49236)"><g data-paper-data="{&quot;isPaintingLayer&quot;:true}" fill="none" fill-rule="nonzero" stroke="none" stroke-width="1" stroke-linecap="butt" stroke-linejoin="miter" stroke-miterlimit="10" stroke-dasharray="" stroke-dashoffset="0" font-family="none" font-weight="none" font-size="none" text-anchor="none" style="mix-blend-mode: normal"><path d="M236.555,177.81301l1.348,15.845l-12.058,-1.277l-16.477,-3.679l-8.213,-3.254l-1.973,-11.015v-5.782l8.913,4.281l17.299,4.082c0,0 9.738,1.174 10.012,1.099z" id="Shape" fill="#897ab8"/><path d="M251.309,177.96301l4.044,0.15l7.34,-1.427l7.415,-2.328l5.542,-2.853l4.044,-2.328l2.696,-2.704l1.049,16.221l-7.789,5.407l-12.508,3.755l-10.941,2.252l-5.161,-0.45l1.273,-15.545l2.996,-0.15" id="Shape" fill="#897ab8"/><path d="M282.69,165.87301l-3.745,3.604l-7.714,3.905l-10.41,4.205l-9.212,0.526h-2.697l0.475,-15.545v-8.485l-2.306,-5.938l-2.887,-2.623l-2.846,-0.726l-3.445,2.678l-1.723,2.929l-0.674,7.059l0.525,8.561l0.374,12.09h-2.921l-11.608,-1.577l-15.204,-4.13l-5.917,-3.454l-1.722,-2.253l-0.824,-16.221l1.348,-25.082l1.947,-15.244l5.318,-15.244l3.819,-7.284l3.52,-5.557l6.516,-5.182l2.147,2.128l4.715,1.439l9.016,1.239l8.163,-1.352l6.441,-2.328l2.322,-1.861l6.516,5.992l6.74,8.711l5.243,11.489l3.081,10.363l2.087,10.801l1.572,10.803l1.624,13.836l2.346,17.728" data-paper-data="{&quot;origPos&quot;:null}" id="Shape" fill="#c1b4d8"/><path d="M251.084,77.311l-4.393,2.403l-8.788,1.402h-8.188l-6.89,-2.103l-1.33,-2.103v-1.401l4.971,-3.004c0,0 6.943,-1.502 7.243,-1.302c0.299,0.2 9.586,0 9.586,0l6.291,2.203l3.495,2.103z" id="Shape" fill="#ef463c"/><path d="M227.539,95.23401l1.976,-2.203l6.191,-1.602l8.189,1.102l7.09,4.129l2.93,4.982l2.861,6.008l-0.76,5.407l-1.636,3.604l-4.993,4.206l-6.79,1.301l-6.592,-0.501l-4.892,-2.903l-5.719,-5.808l-2.57,-8.31v-2.203l1.105,-4.973l3.61,-2.236" id="Shape" fill="#ef463c"/><path d="M248.987,101.66601l2.022,6.158l-0.524,4.881c0,0 -5.018,2.478 -5.242,2.328c-0.225,-0.15 -7.34,0 -7.34,0l-6.89,-4.806l-1.423,-6.608l1.722,-3.905l4.419,-2.478l8.388,1.652z" id="Shape" fill="#ffffff"/><path d="M201.155,185.44801l-4.694,1.902l-2.796,4.506l-0.898,5.507l0.499,6.108l1.997,12.115l0.699,5.407l-0.999,0.601l-1.697,-1.402l-3.795,-4.506l-3.944,-7.409l-6.042,-9.712l-5.392,-12.516l-2.996,-13.017l-1.198,-11.214l0.999,-6.208l1.497,-5.707l3.395,-5.107l4.494,-2.803l7.689,-1.843l10.585,2.343v21.327l1.299,15.921l1.298,5.707" id="Shape" fill="#ef463c"/><path d="M245.492,145.798l1.898,2.803l1.597,4.506l0.4,9.212l-1.098,12.315l-1.199,14.218l-1.598,18.824l-2.696,14.519l-1.398,1.802l-1.598,-9.312l-1.298,-13.417l-0.599,-10.714l-0.899,-13.116l-0.798,-11.314l-0.8,-8.211l0.699,-5.007l0.999,-3.704l2.522,-2.804l2.771,-1.602l3.095,1.002" id="Shape" fill="#ef463c"/><path d="M280.344,143.595l4.693,-3.445l7.489,-0.049l7.39,2.092l6.59,5.952l2.197,5.963l0.999,9.312l-1.598,10.914l-4.094,15.82l-5.193,13.217l-2.696,5.306l-1.598,1.102v-8.911v-5.708l-1.597,-5.006l-3.096,-4.105l-2.996,-2.103l-3.794,-1.101v-7.911l-0.599,-10.713l-0.899,-8.811l-1.198,-11.815" id="Shape" fill="#ef463c"/><path d="M310.658,161.59301c0.024,1.13 -0.11,2.245 -0.104,3.375c0.003,0.558 -0.078,1.078 -0.149,1.624c-0.166,1.28 -0.385,2.5 -0.495,3.779c-0.142,1.623 -0.738,3.195 -1.006,4.8c-0.252,1.506 -0.595,2.887 -0.988,4.365c-0.096,0.361 -0.139,0.735 -0.225,1.099c-0.194,0.825 -0.371,1.655 -0.606,2.469c-0.232,0.8 -0.549,1.577 -0.786,2.376c-0.127,0.427 -0.126,0.894 -0.255,1.321c-0.25,0.828 -0.613,1.625 -0.815,2.463c-0.367,1.526 -0.917,2.978 -1.478,4.44c-0.617,1.608 -1.062,3.282 -1.584,4.926c-0.028,0.092 -0.069,0.179 -0.114,0.263c-0.399,0.736 -0.819,1.461 -1.192,2.21c-0.217,0.436 -0.276,0.971 -0.554,1.353c-0.549,0.757 -0.787,1.579 -1.018,2.474c-0.211,0.821 -0.802,1.552 -1.553,2.094c-0.21,0.152 -0.218,0.562 -0.362,0.83c-0.584,1.081 -1.186,2.152 -1.777,3.23c-0.149,0.273 -0.262,0.569 -0.433,0.827c-0.108,0.163 -0.291,0.275 -0.445,0.405c-0.052,0.045 -0.154,0.061 -0.171,0.112c-0.257,0.777 -0.542,1.548 -0.731,2.342c-0.069,0.286 0.054,0.57 -0.411,0.555c-0.134,-0.003 -0.312,0.175 -0.406,0.312c-0.326,0.472 -0.683,0.551 -1.135,0.178c-0.402,-0.332 -0.449,-0.937 -0.187,-1.334c0.199,-0.301 0.296,-0.679 0.395,-1.034c0.094,-0.339 0.106,-0.701 0.202,-1.039c0.14,-0.493 0.362,-0.964 0.48,-1.461c0.333,-1.404 0.662,-2.812 0.928,-4.229c0.109,-0.579 0.063,-1.189 0.068,-1.785c0.011,-0.972 0.019,-1.945 0.002,-2.916c-0.016,-0.878 -0.034,-1.758 -0.114,-2.631c-0.106,-1.171 -0.24,-2.341 -0.42,-3.503c-0.253,-1.64 -0.588,-3.261 -1.381,-4.75c-0.208,-0.391 -0.269,-0.859 -0.471,-1.255c-0.166,-0.325 -0.42,-0.617 -0.671,-0.888c-0.826,-0.892 -1.578,-1.887 -2.527,-2.621c-1.189,-0.918 -2.347,-1.965 -3.938,-2.319c-0.121,0.148 -0.255,0.307 -0.383,0.47c-0.228,0.292 -0.476,0.452 -0.836,0.186c-0.325,-0.239 -0.553,-0.155 -0.833,0.158c-0.779,0.873 -1.678,1.594 -2.739,2.135c-1.09,0.556 -2.086,1.296 -3.181,1.836c-0.834,0.412 -1.758,0.644 -2.645,0.946c-1.44,0.491 -2.97,0.668 -4.319,1.5c-0.715,0.44 -1.645,0.531 -2.48,0.769c-1.13,0.322 -2.257,0.655 -3.396,0.941c-0.8,0.201 -1.621,0.317 -2.426,0.496c-0.511,0.112 -1.007,0.305 -1.521,0.4c-1.157,0.214 -2.32,0.406 -3.485,0.576c-1.097,0.16 -2.197,0.314 -3.302,0.405c-0.883,0.074 -1.777,0.027 -2.664,0.078c-0.434,0.026 -0.863,0.152 -1.295,0.234c-0.023,0.005 -0.042,0.034 -0.063,0.034c-0.317,0.003 -0.86,-0.096 -0.91,0.02c-0.202,0.465 -0.287,0.993 -0.349,1.505c-0.148,1.226 -0.272,2.455 -0.382,3.685c-0.12,1.342 -0.205,2.689 -0.322,4.031c-0.048,0.544 -0.16,1.083 -0.211,1.627c-0.23,2.433 -0.42,4.87 -0.686,7.301c-0.094,0.862 -0.36,1.705 -0.547,2.558c-0.338,1.532 -0.784,3.051 -0.979,4.601c-0.192,1.52 -0.363,3.015 -1.035,4.414c-0.186,0.387 -0.238,0.844 -0.449,1.214c-0.154,0.269 -0.55,0.674 -0.694,0.622c-0.455,-0.165 -1.049,-0.428 -1.213,-0.815c-0.377,-0.883 -0.547,-1.856 -0.767,-2.801c-0.154,-0.663 -0.258,-1.337 -0.369,-2.009c-0.287,-1.73 -0.615,-3.456 -0.834,-5.196c-0.216,-1.719 -0.299,-3.454 -0.479,-5.178c-0.189,-1.825 -0.406,-3.647 -0.641,-5.466c-0.18,-1.395 -0.484,-2.778 -0.596,-4.177c-0.172,-2.137 -0.228,-4.285 -0.334,-6.428c-0.005,-0.091 -0.033,-0.18 -0.048,-0.261c-1.349,-0.151 -2.663,-0.345 -3.984,-0.434c-1.205,-0.08 -2.432,0.065 -3.624,-0.092c-1.668,-0.219 -3.309,-0.632 -4.965,-0.947c-0.607,-0.117 -1.223,-0.199 -1.836,-0.285c-0.817,-0.116 -1.639,-0.204 -2.454,-0.334c-0.676,-0.107 -1.359,-0.208 -2.014,-0.397c-1.691,-0.49 -3.364,-1.043 -5.055,-1.536c-0.567,-0.165 -1.186,-0.163 -1.745,-0.348c-1.2,-0.398 -2.355,-0.943 -3.567,-1.288c-1.777,-0.506 -3.468,-1.218 -5.191,-1.862c-0.612,-0.229 -1.441,-0.018 -2.135,0.148c-0.816,0.196 -1.681,0.43 -2.359,0.892c-0.616,0.418 -1.029,1.151 -1.499,1.77c-0.909,1.199 -1.347,2.636 -1.771,4.032c-0.367,1.213 -0.391,2.531 -0.569,3.802c-0.255,1.82 0.059,3.6 0.309,5.394c0.165,1.176 0.087,2.383 0.182,3.572c0.067,0.825 0.256,1.64 0.367,2.463c0.075,0.553 0.083,1.115 0.17,1.666c0.098,0.63 0.242,1.253 0.378,1.876c0.394,1.804 0.844,3.598 1.17,5.413c0.197,1.093 0.218,2.219 0.29,3.332c0.035,0.535 0.012,1.074 0.004,1.611c-0.007,0.435 -0.57,0.926 -0.976,0.779c-0.406,-0.147 -0.791,-0.395 -1.132,-0.665c-0.305,-0.242 -0.541,-0.571 -0.804,-0.866c-1.503,-1.681 -3.106,-3.286 -4.475,-5.072c-1.095,-1.428 -1.909,-3.073 -2.836,-4.629c-0.801,-1.345 -1.551,-2.722 -2.384,-4.047c-0.989,-1.571 -2.112,-3.062 -3.048,-4.662c-0.876,-1.498 -1.572,-3.102 -2.374,-4.645c-0.5,-0.96 -1.094,-1.874 -1.569,-2.846c-0.486,-0.992 -0.883,-2.029 -1.312,-3.048c-0.748,-1.774 -1.552,-3.527 -2.216,-5.331c-0.614,-1.666 -1.066,-3.391 -1.609,-5.083c-0.349,-1.083 -0.854,-2.13 -1.076,-3.236c-0.41,-2.049 -0.652,-4.13 -0.989,-6.194c-0.118,-0.721 -0.397,-1.424 -0.454,-2.146c-0.099,-1.242 -0.072,-2.495 -0.117,-3.742c-0.019,-0.563 -0.069,-1.126 -0.133,-1.686c-0.273,-2.412 -0.237,-4.808 0.257,-7.198c0.226,-1.088 0.263,-2.215 0.473,-3.307c0.209,-1.09 0.457,-2.184 0.819,-3.23c0.424,-1.228 0.88,-2.471 1.524,-3.591c0.897,-1.559 1.782,-3.215 3.044,-4.446c1.125,-1.097 2.289,-2.361 3.998,-2.748c0.548,-0.123 1.008,-0.597 1.548,-0.802c0.947,-0.36 1.933,-0.616 2.891,-0.951c1.902,-0.666 3.782,-0.646 5.739,-0.145c2.274,0.582 4.601,0.96 6.903,1.43c0.254,0.052 0.502,0.127 0.913,0.233c0.031,-0.967 0.036,-1.882 0.094,-2.794c0.12,-1.89 0.272,-3.777 0.401,-5.667c0.062,-0.898 0.076,-1.8 0.152,-2.697c0.148,-1.727 0.298,-3.455 0.496,-5.176c0.29,-2.528 0.584,-5.057 0.949,-7.575c0.323,-2.233 0.687,-4.464 1.141,-6.674c0.438,-2.134 0.933,-4.265 1.553,-6.352c0.613,-2.059 1.366,-4.079 2.152,-6.08c0.446,-1.135 1.095,-2.19 1.627,-3.294c0.227,-0.471 0.629,-0.879 0.455,-1.512c-0.058,-0.207 0.195,-0.51 0.328,-0.757c0.514,-0.96 1.007,-1.932 1.562,-2.868c0.779,-1.311 1.616,-2.588 2.408,-3.892c0.261,-0.428 0.445,-0.903 0.692,-1.342c0.37,-0.66 0.696,-1.361 1.165,-1.945c0.608,-0.757 1.319,-1.436 2.02,-2.112c1.244,-1.2 2.524,-2.362 3.77,-3.56c0.454,-0.437 0.847,-0.939 1.285,-1.394c0.107,-0.11 0.285,-0.148 0.426,-0.226c0.901,-0.499 1.805,-0.993 2.7,-1.504c0.86,-0.491 1.686,-1.05 2.572,-1.489c1.224,-0.607 2.48,-1.153 3.745,-1.672c0.405,-0.167 0.877,-0.189 1.322,-0.242c2.146,-0.255 4.289,-0.634 6.441,-0.702c1.703,-0.054 3.455,-0.013 5.097,0.687c0.316,0.135 0.764,-0.076 1.117,0.011c1.253,0.311 2.517,0.607 3.727,1.049c1.103,0.405 2.137,0.998 3.206,1.498c0.761,0.356 1.549,0.66 2.287,1.057c0.38,0.204 0.681,0.558 1.013,0.849c0.158,0.14 0.297,0.305 0.463,0.435c0.639,0.503 1.34,0.942 1.92,1.506c1.197,1.167 2.313,2.418 3.497,3.601c1.182,1.181 2.358,2.376 3.62,3.468c1.503,1.3 2.349,3.009 3.234,4.717c0.212,0.409 0.612,0.719 0.846,1.121c0.397,0.684 0.713,1.414 1.097,2.106c0.448,0.808 1,1.565 1.384,2.4c0.514,1.119 0.896,2.298 1.364,3.439c0.211,0.514 0.533,0.985 0.736,1.503c0.505,1.284 1.001,2.573 1.443,3.879c0.6,1.774 1.167,3.562 1.71,5.355c0.351,1.157 0.633,2.335 0.946,3.504c0.414,1.547 0.862,3.087 1.231,4.645c0.324,1.371 0.553,2.763 0.844,4.142c0.046,0.214 0.152,0.527 0.308,0.587c0.669,0.254 0.806,0.83 0.969,1.406c0.084,0.296 0.093,0.626 0.229,0.894c0.369,0.727 0.175,1.265 -0.438,1.738c-0.131,0.1 -0.255,0.32 -0.245,0.476c0.097,1.545 0.121,3.104 0.371,4.625c0.238,1.454 0.745,2.861 1.085,4.301c0.161,0.682 0.236,1.388 0.3,2.089c0.115,1.257 0.184,2.519 0.295,3.777c0.021,0.246 0.142,0.482 0.248,0.825c1.164,-0.66 2.213,-1.338 3.335,-1.86c0.673,-0.313 1.455,-0.405 2.196,-0.555c0.949,-0.192 1.91,-0.49 2.861,-0.476c1.604,0.025 3.23,-0.088 4.811,0.38c1.594,0.471 3.269,0.733 4.789,1.371c0.948,0.398 1.835,0.925 2.702,1.476c0.672,0.428 1.462,0.796 2.086,1.279c1.479,1.143 2.762,3.057 3.706,4.649c0.416,0.702 0.556,1.46 0.912,2.185c0.398,0.813 0.849,1.609 1.079,2.492c0.25,0.957 0.527,1.888 0.822,2.817c0.323,1.019 0.268,2.229 0.335,3.286c0.072,1.129 0.113,2.235 0.139,3.35zM222.479,77.24701c0.995,0.537 1.7,1.508 2.951,1.692c1.562,0.23 3.073,0.843 4.637,1.015c2.642,0.292 5.308,0.367 7.886,0.528c0.2,-0.074 0.308,-0.133 0.421,-0.153c0.915,-0.158 1.826,-0.372 2.747,-0.45c1.777,-0.151 3.476,-0.578 5.135,-1.221c0.899,-0.35 1.837,-0.6 2.739,-0.945c0.45,-0.172 0.872,-0.436 1.282,-0.698c0.269,-0.172 0.504,-0.405 0.735,-0.63c0.128,-0.124 0.331,-0.328 0.296,-0.424c-0.056,-0.16 -0.257,-0.303 -0.429,-0.384c-1.272,-0.599 -2.577,-1.131 -3.824,-1.779c-1.642,-0.852 -3.416,-1.115 -5.204,-1.356c-1.014,-0.136 -2.033,-0.24 -3.049,-0.363c-0.846,-0.102 -1.694,-0.319 -2.536,-0.293c-1.573,0.049 -3.149,0.191 -4.712,0.385c-0.877,0.108 -1.766,0.307 -2.587,0.626c-1.026,0.399 -1.94,1.148 -2.986,1.413c-1.384,0.35 -2.367,1.245 -3.465,2.003c-0.434,0.3 -0.525,0.772 -0.037,1.034zM201.804,126.88401c1.42,0.75 2.896,1.425 4.406,1.965c1.839,0.657 3.734,1.165 5.617,1.692c1.279,0.358 2.568,0.708 3.874,0.935c1.855,0.322 3.796,0.206 5.5,1.226c0.216,0.129 0.5,0.184 0.757,0.195c2.65,0.118 5.302,0.235 7.954,0.32c1.221,0.039 2.445,-0.018 3.666,0.018c0.6,0.018 1.196,0.212 1.795,0.216c1.121,0.008 2.242,-0.089 3.363,-0.098c2.158,-0.017 4.317,0.048 6.474,-0.015c2.438,-0.07 4.867,-0.209 7.3,-0.496c2.858,-0.336 5.7,-0.71 8.487,-1.422c1.707,-0.435 3.37,-1.065 5.087,-1.449c2.295,-0.513 4.317,-1.622 6.381,-2.658c0.314,-0.156 0.673,-0.259 0.934,-0.478c0.82,-0.689 1.613,-1.412 2.398,-2.142c0.542,-0.504 0.938,-1.049 0.514,-1.864c-0.142,-0.274 -0.063,-0.657 -0.117,-0.986c-0.163,-0.979 -0.309,-1.963 -0.523,-2.931c-0.26,-1.178 -0.591,-2.34 -0.878,-3.512c-0.248,-1.016 -0.42,-2.053 -0.725,-3.051c-0.617,-2.016 -1.296,-4.012 -1.957,-6.014c-0.49,-1.485 -0.973,-2.972 -1.495,-4.446c-0.346,-0.975 -0.746,-1.932 -1.139,-2.891c-0.414,-1.01 -0.824,-2.021 -1.28,-3.011c-0.325,-0.706 -0.726,-1.375 -1.088,-2.063c-0.43,-0.82 -0.838,-1.652 -1.29,-2.459c-0.288,-0.514 -0.644,-0.991 -0.962,-1.489c-0.289,-0.453 -0.499,-1.222 -0.867,-1.305c-0.733,-0.167 -0.786,-0.707 -1.064,-1.159c-0.39,-0.632 -0.729,-1.319 -1.228,-1.854c-1.927,-2.067 -3.893,-4.1 -5.881,-6.109c-0.709,-0.716 -1.523,-1.328 -2.31,-2.005c-0.241,0.351 -0.4,0.843 -0.728,1.014c-1.195,0.624 -2.404,1.282 -3.686,1.662c-1.583,0.47 -3.243,0.671 -4.868,0.999c-1.138,0.229 -2.271,0.482 -3.407,0.714c-0.787,0.16 -1.572,0.353 -2.369,0.437c-0.571,0.061 -1.158,-0.052 -1.738,-0.058c-1.289,-0.013 -2.581,0.056 -3.864,-0.032c-1.073,-0.073 -2.134,-0.334 -3.203,-0.49c-1.563,-0.229 -3.129,-0.436 -4.691,-0.662c-0.134,-0.02 -0.257,-0.117 -0.382,-0.18c-0.472,-0.238 -0.924,-0.531 -1.419,-0.7c-0.54,-0.184 -1.156,-0.169 -1.668,-0.399c-0.36,-0.163 -0.773,-0.422 -0.774,-1.007c-0.001,-0.309 -0.277,-0.616 -0.429,-0.924c-0.249,0.139 -0.536,0.237 -0.742,0.424c-1.149,1.039 -2.301,2.078 -3.409,3.161c-0.932,0.91 -1.879,1.822 -2.682,2.841c-0.652,0.827 -1.134,1.798 -1.633,2.737c-0.761,1.434 -1.493,2.885 -2.196,4.348c-1.103,2.295 -2.205,4.593 -3.245,6.917c-0.686,1.532 -1.329,3.091 -1.872,4.678c-0.568,1.656 -1.076,3.342 -1.461,5.049c-0.621,2.754 -1.184,5.526 -1.646,8.31c-0.307,1.851 -0.399,3.739 -0.578,5.611c-0.068,0.712 -0.062,1.434 -0.178,2.137c-0.198,1.208 0.09,2.186 1.165,2.753zM200.15,184.70301c-0.154,-0.4 -0.346,-0.72 -0.396,-1.06c-0.262,-1.802 -0.5,-3.609 -0.725,-5.416c-0.253,-2.018 -0.519,-4.036 -0.712,-6.06c-0.151,-1.586 -0.19,-3.184 -0.296,-4.774c-0.173,-2.595 -0.386,-5.186 -0.533,-7.781c-0.085,-1.506 -0.074,-3.018 -0.107,-4.527c-0.01,-0.472 -0.026,-0.945 -0.034,-1.419c-0.021,-1.161 -0.075,-2.323 -0.053,-3.483c0.039,-2.112 0.137,-4.222 0.165,-6.334c0.003,-0.226 -0.249,-0.582 -0.462,-0.661c-0.638,-0.236 -1.312,-0.374 -1.976,-0.53c-1.551,-0.365 -3.118,-0.671 -4.655,-1.087c-1.582,-0.427 -3.155,-0.793 -4.792,-0.406c-0.959,0.227 -1.913,0.485 -2.859,0.76c-0.818,0.238 -1.65,0.458 -2.427,0.799c-1.066,0.468 -1.906,1.277 -2.826,1.978c-1.496,1.141 -2.46,2.638 -3.282,4.193c-0.853,1.612 -1.36,3.417 -1.952,5.159c-0.771,2.272 -1.063,4.663 -1.166,7.025c-0.116,2.666 0.161,5.352 0.287,8.028c0.035,0.734 0.098,1.473 0.227,2.195c0.28,1.563 0.694,3.107 0.903,4.678c0.338,2.555 0.921,5.038 1.81,7.454c0.548,1.488 1.072,2.985 1.642,4.464c0.753,1.95 1.482,3.912 2.331,5.821c0.685,1.539 1.55,2.996 2.299,4.508c0.299,0.601 0.481,1.259 0.75,1.876c0.131,0.301 0.373,0.554 0.507,0.854c0.428,0.951 0.765,1.916 1.48,2.749c0.719,0.838 1.214,1.864 1.75,2.855c0.784,1.447 1.759,2.79 2.715,4.144c0.034,0.118 0.081,0.232 0.152,0.339c0.49,0.739 0.743,1.55 1.172,2.322c0.305,0.994 0.89,1.86 1.477,2.688c0.757,1.068 1.808,1.924 2.635,2.95c0.471,0.585 1.008,0.879 1.801,0.982c-0.176,-1.051 -0.29,-2.043 -0.514,-3.009c-0.514,-2.211 -1.166,-4.393 -1.6,-6.619c-0.403,-2.067 -0.641,-4.173 -0.866,-6.27c-0.157,-1.455 -0.214,-2.925 -0.235,-4.389c-0.021,-1.412 -0.042,-2.838 0.125,-4.235c0.323,-2.701 1.425,-5.133 2.796,-7.465c0.406,-0.691 0.884,-1.282 1.539,-1.666c0.816,-0.477 1.707,-0.83 2.58,-1.201c0.457,-0.194 0.945,-0.31 1.325,-0.429zM206.129,173.56601c-1.637,-0.394 -3.035,-1.262 -4.406,-2.189c-0.508,-0.343 -1.014,-0.687 -1.72,-1.167c0.24,4.973 0.754,9.698 1.644,14.406c1.709,0 2.96,1.449 4.792,1.833c0,-1.794 0.026,-3.5 -0.007,-5.205c-0.031,-1.549 -0.156,-3.095 -0.175,-4.643c-0.006,-0.486 0.16,-0.986 0.31,-1.46c0.231,-0.735 0.07,-1.454 -0.438,-1.575zM222.182,189.37401c-0.123,-1.466 -0.348,-2.928 -0.404,-4.397c-0.078,-2.037 -0.076,-4.081 -0.029,-6.121c0.018,-0.783 -0.198,-1.129 -0.989,-1.319c-2.834,-0.682 -5.647,-1.45 -8.47,-2.178c-0.153,-0.039 -0.348,-0.075 -0.477,-0.014c-0.688,0.322 -1.306,0.065 -1.939,-0.171c-0.576,-0.214 -1.16,-0.407 -1.82,-0.637c0,1.284 -0.029,2.449 0.007,3.613c0.043,1.394 0.142,2.786 0.211,4.179c0.006,0.118 -0.028,0.237 -0.037,0.356c-0.033,0.402 -0.092,0.806 -0.085,1.207c0.01,0.607 0.145,1.221 0.089,1.819c-0.103,1.094 0.182,1.651 1.185,1.951c1.316,0.394 2.651,0.73 3.954,1.164c2.391,0.798 4.792,1.544 7.278,1.987c0.474,0.084 0.948,0.162 1.532,0.262c0,-0.672 0.037,-1.189 -0.006,-1.701zM236.836,190.63801c-0.174,-2.704 -0.376,-5.406 -0.578,-8.109c-0.076,-1.029 -0.179,-2.056 -0.268,-3.074c-0.488,0.04 -0.914,0.129 -1.332,0.101c-1.452,-0.1 -2.911,-0.174 -4.349,-0.385c-1.19,-0.174 -2.344,-0.596 -3.533,-0.78c-1.083,-0.167 -2.192,-0.176 -3.291,-0.207c-0.111,-0.004 -0.327,0.314 -0.333,0.488c-0.028,0.809 0.196,1.592 0.32,2.375c0.273,1.727 0.143,3.519 0.169,5.285c0.003,0.231 -0.087,0.466 -0.067,0.694c0.082,0.965 0.251,1.926 0.272,2.891c0.022,0.956 0.331,1.525 1.222,1.713c1.318,0.28 2.637,0.567 3.969,0.752c1.323,0.183 2.663,0.25 3.997,0.354c0.919,0.072 1.841,0.104 2.759,0.188c0.529,0.048 0.961,0.053 0.968,-0.659c0.006,-0.543 0.111,-1.089 0.075,-1.627zM247.863,169.27201c0.117,-1.996 0.223,-3.992 0.332,-5.989c0.009,-0.166 -0.002,-0.334 -0.002,-0.501c0.002,-0.564 -0.032,-1.133 0.015,-1.694c0.048,-0.564 0.26,-1.121 0.25,-1.679c-0.019,-0.996 -0.124,-1.993 -0.242,-2.985c-0.134,-1.125 -0.216,-2.273 -0.516,-3.357c-0.305,-1.102 -0.912,-2.118 -1.272,-3.209c-0.513,-1.559 -1.342,-2.8 -2.895,-3.461c-0.106,-0.045 -0.242,-0.104 -0.292,-0.195c-0.35,-0.651 -0.802,-0.639 -1.361,-0.272c-0.171,0.111 -0.435,0.074 -0.61,0.181c-0.725,0.442 -1.538,0.806 -2.123,1.394c-1.341,1.35 -1.944,3.149 -2.435,4.925c-0.288,1.039 -0.222,2.184 -0.246,3.284c-0.037,1.615 -0.217,3.229 0.175,4.841c0.213,0.88 0.278,1.804 0.332,2.713c0.071,1.175 0.041,2.357 0.1,3.533c0.061,1.215 0.194,2.427 0.261,3.642c0.07,1.25 0.105,2.503 0.142,3.755c0.018,0.635 -0.003,1.27 0.01,1.905c0.006,0.31 0.036,0.62 0.074,0.929c0.151,1.272 0.366,2.539 0.454,3.816c0.157,2.295 0.242,4.594 0.35,6.892c0.097,2.047 0.184,4.095 0.272,6.142c0.022,0.545 -0.046,1.107 0.063,1.633c0.101,0.492 0.161,0.877 -0.257,1.028c0.256,1.363 0.576,2.652 0.727,3.961c0.246,2.139 0.361,4.293 0.576,6.435c0.1,1.001 0.334,1.987 0.46,2.986c0.19,1.522 0.284,3.059 0.519,4.574c0.344,2.214 0.777,4.415 1.172,6.623l0.212,0.015c0.084,-0.279 0.197,-0.553 0.246,-0.837c0.063,-0.369 0.032,-0.755 0.116,-1.116c0.423,-1.826 1.006,-3.624 1.273,-5.47c0.364,-2.514 0.495,-5.063 0.724,-7.598c0.058,-0.649 0.091,-1.301 0.167,-1.949c0.184,-1.568 0.382,-3.135 0.583,-4.7c0.207,-1.62 0.438,-3.236 0.632,-4.856c0.121,-1.012 0.216,-2.029 0.279,-3.046c0.028,-0.447 -0.084,-0.903 -0.074,-1.353c0.02,-0.85 0.089,-1.699 0.123,-2.549c0.028,-0.671 -0.006,-1.346 0.058,-2.012c0.162,-1.684 0.377,-3.364 0.544,-5.048c0.05,-0.5 -0.038,-1.015 0.023,-1.512c0.256,-2.08 0.572,-4.153 0.812,-6.235c0.137,-1.188 0.179,-2.388 0.249,-3.584zM258.764,189.62301c-0.061,-1.543 -0.172,-3.084 -0.255,-4.626c-0.072,-1.326 -0.163,-2.653 -0.184,-3.98c-0.013,-0.792 0.094,-1.583 0.148,-2.39c-0.235,-0.033 -0.327,-0.061 -0.417,-0.055c-2.098,0.135 -4.196,0.272 -6.294,0.413c-0.115,0.008 -0.25,0.03 -0.336,0.096c-0.702,0.54 -1.426,0.417 -2.219,0.066c-0.138,0.366 -0.274,0.67 -0.369,0.987c-0.197,0.656 -0.456,1.309 -0.538,1.981c-0.142,1.173 -0.161,2.361 -0.251,3.542c-0.081,1.07 -0.285,2.141 -0.262,3.207c0.028,1.344 0.212,2.687 0.384,4.024c0.022,0.17 0.37,0.414 0.577,0.424c0.535,0.026 1.079,-0.044 1.616,-0.106c2.503,-0.288 5.004,-0.603 7.511,-0.87c0.644,-0.07 0.729,-0.506 0.787,-0.968c0.072,-0.577 0.125,-1.165 0.102,-1.745zM271.334,186.53601c-0.068,-0.813 -0.17,-1.623 -0.216,-2.436c-0.041,-0.746 0.004,-1.498 -0.046,-2.243c-0.058,-0.864 -0.272,-1.727 -0.248,-2.586c0.04,-1.491 0.194,-2.978 -0.422,-4.502c-0.399,0.19 -0.731,0.381 -1.086,0.509c-2.347,0.844 -4.694,1.69 -7.054,2.498c-0.559,0.192 -1.175,0.214 -1.748,0.373c-0.173,0.048 -0.408,0.29 -0.413,0.45c-0.021,0.679 0.049,1.361 0.053,2.043c0.005,0.57 -0.024,1.14 -0.06,1.709c-0.028,0.452 -0.091,0.902 -0.134,1.353c-0.016,0.164 -0.066,0.342 -0.026,0.493c0.596,2.229 0.723,4.508 0.715,6.799c-0.002,0.461 0.202,0.623 0.61,0.546c0.749,-0.142 1.487,-0.333 2.238,-0.461c0.607,-0.105 1.246,-0.073 1.835,-0.236c0.863,-0.239 1.689,-0.615 2.541,-0.902c0.844,-0.285 1.712,-0.501 2.544,-0.814c0.383,-0.144 0.946,-0.399 1.003,-0.687c0.121,-0.606 -0.032,-1.269 -0.086,-1.906zM271.834,172.49201c2.198,-0.833 3.995,-2.385 6.052,-3.467c1.139,-0.6 1.991,-1.468 2.772,-2.432c0.318,-0.392 0.717,-0.895 0.714,-1.345c-0.016,-2.198 -0.143,-4.396 -0.257,-6.592c-0.034,-0.645 -0.148,-1.287 -0.232,-1.929c-0.191,-1.477 -0.398,-2.952 -0.578,-4.431c-0.164,-1.35 -0.284,-2.705 -0.455,-4.054c-0.087,-0.69 -0.309,-1.367 -0.355,-2.057c-0.078,-1.188 -0.003,-2.387 -0.108,-3.57c-0.156,-1.771 -0.417,-3.533 -0.621,-5.3c-0.049,-0.419 0.016,-0.862 -0.086,-1.265c-0.246,-0.987 -0.625,-1.944 -0.826,-2.938c-0.21,-1.04 -0.274,-2.109 -0.402,-3.166c-0.115,-0.954 -0.23,-1.908 -0.346,-2.874c-0.903,0.573 -1.777,0.997 -2.487,1.613c-0.8,0.693 -1.646,1.229 -2.631,1.59c-1.066,0.392 -2.096,0.89 -3.177,1.23c-1.098,0.346 -2.237,0.564 -3.362,0.823c-1.241,0.285 -2.488,0.54 -3.726,0.832c-1.655,0.391 -3.293,0.872 -4.962,1.188c-1.485,0.281 -2.998,0.423 -4.506,0.566c-1.27,0.121 -2.552,0.116 -3.822,0.235c-2.606,0.243 -5.207,0.538 -7.824,0.169c-0.329,-0.047 -0.661,-0.117 -0.99,-0.112c-1.81,0.024 -3.621,0.144 -5.427,0.09c-2.971,-0.089 -5.939,-0.296 -8.909,-0.432c-1.182,-0.053 -2.34,-0.073 -3.512,-0.409c-0.92,-0.264 -2.019,0.191 -2.844,-0.638c-0.056,-0.057 -0.182,-0.042 -0.276,-0.06c-1.765,-0.343 -3.53,-0.69 -5.296,-1.028c-0.3,-0.057 -0.615,-0.048 -0.911,-0.122c-0.61,-0.15 -1.209,-0.343 -1.818,-0.503c-0.727,-0.192 -1.481,-0.305 -2.182,-0.563c-1.013,-0.371 -1.973,-0.887 -2.987,-1.257c-0.909,-0.331 -1.874,-0.51 -2.787,-0.834c-0.403,-0.143 -0.743,-0.469 -1.103,-0.725c-0.385,-0.274 -0.759,-0.563 -1.241,-0.922c-0.088,0.404 -0.168,0.629 -0.183,0.858c-0.091,1.35 -0.165,2.701 -0.247,4.052c-0.078,1.286 -0.171,2.571 -0.237,3.858c-0.061,1.192 -0.081,2.388 -0.148,3.58c-0.05,0.89 -0.289,1.787 0.198,2.639c0.049,0.084 -0.009,0.232 -0.024,0.35c-0.18,1.398 -0.39,2.794 -0.531,4.197c-0.079,0.787 -0.072,1.587 -0.057,2.38c0.029,1.482 0.118,2.964 0.132,4.446c0.008,0.866 -0.13,1.734 -0.112,2.599c0.024,1.137 0.134,2.273 0.212,3.409c0.105,1.507 0.297,3.014 0.299,4.522c0.003,1.458 0.63,2.552 1.583,3.545c0.757,0.79 1.632,1.364 2.64,1.811c1.239,0.547 2.372,1.345 3.621,1.861c1.358,0.562 2.779,1.001 4.206,1.359c2.384,0.596 4.797,1.076 7.193,1.626c1.115,0.256 2.211,0.601 3.331,0.837c1.327,0.278 2.668,0.49 4.005,0.713c0.422,0.07 0.86,0.047 1.278,0.129c0.932,0.183 1.848,0.528 2.784,0.585c1.477,0.088 2.965,0.019 4.448,-0.034c0.63,-0.024 0.922,-0.457 0.863,-1.062c-0.021,-0.212 0.005,-0.431 0.015,-0.646c0.034,-0.725 0.13,-1.452 0.095,-2.172c-0.09,-1.836 -0.317,-3.667 -0.341,-5.503c-0.033,-2.442 -0.102,-4.87 -0.511,-7.286c-0.188,-1.114 -0.237,-2.262 -0.242,-3.395c-0.005,-0.946 0.115,-1.897 0.239,-2.838c0.144,-1.099 0.302,-2.2 0.55,-3.277c0.16,-0.691 0.392,-1.405 0.767,-1.996c1.273,-2.004 3.027,-3.534 5.02,-4.794c0.147,-0.092 0.361,-0.08 0.546,-0.112c1.206,-0.21 2.203,0.357 3.259,0.812c1.414,0.611 2.313,1.627 2.907,3.014c0.245,0.571 0.651,1.071 0.985,1.604c0.159,0.257 0.218,0.597 0.349,0.908c0.144,0.34 0.439,0.633 0.519,0.981c0.22,0.968 0.363,1.953 0.536,2.932c0.004,0.023 0.004,0.048 0.006,0.072c0.074,1.499 0.183,2.996 0.213,4.496c0.023,1.089 0.011,2.186 -0.113,3.265c-0.174,1.521 -0.519,3.02 -0.26,4.569c0.091,0.541 0.093,1.111 0.04,1.659c-0.115,1.2 -0.321,2.393 -0.426,3.595c-0.034,0.379 0.248,0.791 0.195,1.161c-0.184,1.264 -0.445,2.519 -0.693,3.774c-0.08,0.403 0.015,0.587 0.456,0.569c0.814,-0.033 1.632,0.001 2.443,-0.062c2.5,-0.196 5.01,-0.343 7.493,-0.68c1.155,-0.156 2.24,-0.778 3.387,-1.068c1.865,-0.472 3.662,-1.094 5.355,-2.012c0.188,-0.101 0.401,-0.157 0.606,-0.222c0.953,-0.305 1.923,-0.565 2.859,-0.919zM282.421,181.46201c-0.039,-1.08 -0.091,-2.161 -0.142,-3.243c-0.038,-0.849 -0.085,-1.698 -0.124,-2.548c-0.048,-1.041 -0.073,-2.084 -0.146,-3.123c-0.052,-0.734 -0.197,-1.462 -0.242,-2.196c-0.043,-0.691 -0.009,-1.386 -0.009,-2.165c-0.955,0.416 -1.506,1.061 -1.847,1.822c-0.394,0.88 -1.059,1.398 -1.87,1.79c-0.921,0.445 -1.854,0.864 -2.783,1.291c-0.086,0.039 -0.198,0.1 -0.272,0.075c-0.87,-0.303 -1.505,0.261 -2.201,0.59c-0.526,0.249 -0.724,0.755 -0.437,1.255c0.354,0.619 0.535,1.247 0.501,1.974c-0.047,0.998 -0.03,2.002 0.008,3.002c0.033,0.87 0.148,1.737 0.2,2.607c0.094,1.558 0.162,3.117 0.258,4.675c0.015,0.242 0.123,0.478 0.21,0.803c1.597,-0.858 3.384,-1.09 4.681,-2.346c0.118,-0.113 0.266,-0.212 0.419,-0.271c1.711,-0.669 2.686,-2.117 3.703,-3.516c0.087,-0.119 0.099,-0.316 0.093,-0.476zM308.565,164.82601c-0.007,-1.395 -0.041,-2.79 -0.067,-4.184c0,-0.296 -0.002,-0.591 -0.003,-0.886c-0.003,-1.014 0.161,-2.069 -0.065,-3.033c-0.498,-2.128 -1.15,-4.225 -1.84,-6.301c-0.097,-0.292 -0.26,-0.584 -0.456,-0.851c-0.399,-1.004 -1.002,-1.924 -1.665,-2.837c-0.175,-0.239 -0.393,-0.432 -0.636,-0.564c-0.162,-0.186 -0.324,-0.374 -0.5,-0.544c-0.056,-0.054 -0.115,-0.093 -0.173,-0.137c-0.556,-0.626 -1.26,-1.082 -2.017,-1.53c-1.766,-1.045 -3.425,-2.266 -5.51,-2.633c-0.856,-0.152 -1.702,-0.416 -2.564,-0.491c-1.277,-0.113 -2.566,-0.077 -3.847,-0.152c-1.846,-0.11 -3.54,0.427 -5.19,1.157c-0.839,0.372 -1.654,0.799 -2.269,1.099c-0.131,0.711 -0.241,1.285 -0.34,1.861c-0.027,0.16 -0.036,0.326 -0.025,0.488c0.127,1.978 0.221,3.959 0.399,5.933c0.165,1.819 0.423,3.63 0.635,5.445c0.059,0.496 0.092,0.996 0.157,1.492c0.113,0.868 0.281,1.731 0.357,2.603c0.123,1.413 0.187,2.833 0.281,4.249c0.135,2.055 0.277,4.109 0.411,6.164c0.047,0.725 0.077,1.451 0.118,2.176c0.098,1.702 0.194,3.405 0.299,5.107c0.062,1.011 0.118,2.024 0.227,3.031c0.022,0.201 0.231,0.47 0.419,0.547c0.518,0.214 1.122,0.252 1.601,0.523c1.136,0.641 2.258,1.323 3.313,2.09c1.22,0.887 2.366,1.815 3.08,3.273c0.907,1.852 1.506,3.799 2.136,5.736c0.331,1.02 0.388,2.134 0.526,3.211c0.11,0.874 0.196,1.756 0.216,2.635c0.015,0.625 -0.164,1.255 -0.14,1.878c0.028,0.745 0.241,1.483 0.266,2.228c0.046,1.345 0.013,2.694 0.013,4.275c0.703,-1.243 1.368,-2.334 1.95,-3.469c0.626,-1.22 1.175,-2.481 1.755,-3.725c0.488,-1.045 0.995,-2.081 1.45,-3.14c0.327,-0.76 0.581,-1.552 0.869,-2.328c0.42,-1.132 0.904,-2.245 1.249,-3.4c0.461,-1.542 0.793,-3.122 1.223,-4.675c0.53,-1.919 1.19,-3.805 1.639,-5.742c0.697,-3.002 1.298,-6.028 1.867,-9.057c0.109,-0.58 0.16,-1.171 0.197,-1.764c0.075,-0.152 0.135,-0.316 0.16,-0.507c0.072,-0.564 0.108,-1.076 0.088,-1.614c0,-0.014 0.002,-0.029 0.002,-0.042c0.212,-1.182 0.411,-2.351 0.404,-3.595z" data-paper-data="{&quot;origPos&quot;:null}" id="Shape" fill="#30419a"/><path d="M225.394,138.45201c0.008,-0.483 0.189,-0.952 0.828,-1.052c0.63,-0.1 0.978,0.256 1.153,0.82c0.063,0.204 0.12,0.414 0.151,0.624c0.093,0.627 -0.349,1.227 -0.944,1.299c-0.544,0.066 -1.029,-0.339 -1.127,-0.954c-0.034,-0.211 -0.036,-0.427 -0.061,-0.737z" id="Shape" fill="#30419a"/><path d="M275.061,133.56901c-0.004,0.832 -0.421,1.331 -1.095,1.309c-0.632,-0.022 -1.026,-0.522 -1.03,-1.308c-0.004,-0.816 0.416,-1.352 1.063,-1.355c0.647,-0.003 1.065,0.53 1.062,1.354z" id="Shape" fill="#30419a"/><path d="M205.862,134.34101c-0.003,0.807 -0.378,1.291 -1.013,1.309c-0.67,0.018 -1.077,-0.479 -1.08,-1.316c-0.002,-0.829 0.411,-1.366 1.051,-1.364c0.642,0.001 1.047,0.532 1.042,1.371z" id="Shape" fill="#30419a"/><path d="M254.876,140.09901c-0.595,-0.037 -1.004,-0.55 -0.958,-1.202c0.041,-0.59 0.537,-1.067 1.075,-1.036c0.564,0.032 1.056,0.606 1.021,1.189c-0.035,0.61 -0.551,1.085 -1.138,1.049z" id="Shape" fill="#30419a"/><path d="M243.853,123.46101c-1.141,0 -2.285,0.041 -3.424,-0.015c-0.765,-0.038 -1.519,-0.239 -2.284,-0.32c-0.624,-0.067 -1.272,0.016 -1.877,-0.115c-0.574,-0.124 -1.145,-0.299 -1.408,-1.031c-0.109,-0.3 -0.756,-0.395 -1.147,-0.606c-1.95,-1.053 -3.791,-2.269 -5.381,-3.825c-1.199,-1.174 -2.388,-2.365 -3.499,-3.621c-0.439,-0.496 -0.685,-1.177 -0.965,-1.798c-0.437,-0.971 -0.892,-1.942 -1.223,-2.951c-0.448,-1.369 -0.971,-2.755 -1.113,-4.168c-0.116,-1.159 0.044,-2.389 0.448,-3.559c0.565,-1.632 1.318,-3.148 2.338,-4.534c1.008,-1.37 2.062,-2.7 3.426,-3.74c0.596,-0.454 1.172,-0.958 1.83,-1.299c1.922,-0.994 3.932,-1.68 6.129,-1.849c1.425,-0.11 2.842,-0.18 4.247,0.005c1.67,0.22 3.233,0.86 4.828,1.396c1.51,0.507 2.824,1.335 4.095,2.201c1.16,0.79 2.114,1.884 3.153,2.851c0.4,0.374 0.863,0.714 1.156,1.163c0.541,0.831 1.013,1.713 1.45,2.605c0.701,1.433 1.311,2.911 2.03,4.333c0.797,1.578 1.06,3.277 1.092,4.991c0.041,2.161 -0.716,4.122 -1.77,6.006c-1.111,1.986 -2.685,3.549 -4.387,4.956c-1.388,1.148 -3.087,1.824 -4.861,2.244c-0.663,0.156 -1.309,0.382 -1.969,0.558c-0.295,0.08 -0.603,0.115 -0.905,0.169c-0.003,-0.017 -0.006,-0.032 -0.009,-0.047zM223.569,104.12701c0.072,0.014 0.144,0.028 0.215,0.042c-0.124,2.228 0.551,4.257 1.414,6.275c1.06,2.475 2.995,4.224 4.822,6.043c1.486,1.477 3.277,2.588 5.093,3.661c1.217,0.719 2.432,1.147 3.826,1.128c1.557,-0.021 3.114,-0.022 4.671,-0.043c0.767,-0.01 1.593,0.128 2.29,-0.107c1.385,-0.467 2.861,-0.927 4.003,-1.787c1.708,-1.287 3.177,-2.898 4.704,-4.415c0.281,-0.279 0.37,-0.76 0.52,-1.158c0.118,-0.31 0.142,-0.664 0.298,-0.949c0.6,-1.095 0.837,-2.252 0.731,-3.492c-0.145,-1.685 -0.316,-3.361 -1.165,-4.879c-0.448,-0.8 -0.95,-1.582 -1.285,-2.429c-0.786,-1.984 -2.15,-3.514 -3.677,-4.922c-1.84,-1.697 -3.908,-3.033 -6.319,-3.764c-1.244,-0.377 -2.506,-0.908 -3.774,-0.953c-1.908,-0.068 -3.832,0.207 -5.745,0.374c-2.274,0.2 -4.145,1.321 -5.816,2.773c-0.791,0.688 -1.458,1.529 -2.121,2.351c-0.685,0.848 -1.482,1.679 -1.889,2.66c-0.463,1.115 -0.547,2.387 -0.796,3.591z" id="Shape" fill="#30419a"/><path d="M244.989,116.68101c-1.115,0.154 -2.227,0.386 -3.347,0.435c-0.786,0.034 -1.639,-0.038 -2.366,-0.316c-1.61,-0.617 -3.174,-1.366 -4.731,-2.113c-1.644,-0.789 -3.029,-1.999 -3.904,-3.542c-0.812,-1.433 -1.582,-2.943 -1.846,-4.66c-0.239,-1.551 -0.339,-2.983 0.37,-4.478c0.498,-1.05 0.725,-2.255 1.712,-2.974c0.886,-0.647 1.875,-1.152 2.82,-1.719c0.04,-0.024 0.095,-0.023 0.135,-0.047c1.127,-0.684 2.359,-0.591 3.606,-0.553c1.382,0.041 2.768,-0.054 4.153,-0.053c0.235,0 0.466,0.196 0.704,0.288c1.353,0.525 2.702,1.059 4.062,1.563c0.874,0.323 1.508,0.911 2.171,1.558c1.155,1.126 2.002,2.453 2.553,3.896c0.551,1.438 1.253,2.896 1.099,4.527c-0.1,1.075 -0.068,2.186 -0.345,3.213c-0.359,1.33 -1.427,2.248 -2.474,3.055c-0.887,0.684 -1.927,1.176 -2.922,1.71c-0.429,0.23 -0.917,0.349 -1.378,0.518c-0.024,-0.104 -0.048,-0.206 -0.072,-0.308zM249.942,109.76801c-0.082,-2.637 -0.775,-4.537 -1.807,-6.332c-0.253,-0.441 -0.421,-0.977 -0.779,-1.3c-0.586,-0.529 -1.269,-0.966 -1.958,-1.359c-2.309,-1.32 -4.944,-1.565 -7.452,-2.237c-1.678,-0.45 -3.17,0.097 -4.631,0.712c-0.576,0.243 -1.071,0.824 -1.446,1.361c-0.483,0.691 -0.81,1.493 -1.2,2.249c-0.128,0.249 -0.371,0.513 -0.35,0.751c0.081,0.904 0.263,1.798 0.379,2.699c0.191,1.491 1.122,2.625 1.897,3.805c0.54,0.823 1.261,1.613 2.079,2.147c1.448,0.946 2.863,2.039 4.717,2.157c0.964,0.062 1.934,0.378 2.88,0.303c1.413,-0.113 2.887,-0.159 4.118,-1.067c0.627,-0.463 1.292,-0.872 1.9,-1.357c0.981,-0.781 1.659,-1.747 1.653,-2.532z" id="Shape" fill="#30419a"/></g></g></svg>