<svg version="1.1" xmlns="http://www.w3.org/2000/svg" xmlns:xlink="http://www.w3.org/1999/xlink" width="86.27126" height="50.41667" viewBox="0,0,86.27126,50.41667"><g transform="translate(-197.36667,-154.75166)"><g data-paper-data="{&quot;isPaintingLayer&quot;:true}" fill-rule="nonzero" stroke-linejoin="miter" stroke-miterlimit="10" stroke-dasharray="" stroke-dashoffset="0" style="mix-blend-mode: normal"><path d="M197.9,167.84167v-13c0,0 14.40343,0 22.33334,0c9.03629,0 29,0 29,0v13z" fill="#ffffff" stroke="none" stroke-width="0" stroke-linecap="butt"/><path d="M247.9,165.175v-8h20.66667v8z" fill="#ffffff" stroke="none" stroke-width="0" stroke-linecap="butt"/><path d="M249.03333,155.40166l6.6,3l-6.6,-3.4" fill="none" stroke="#ffffff" stroke-width="0.5" stroke-linecap="round"/><path d="M249.03333,167.60167l5.6,-3.4" fill="none" stroke="#ffffff" stroke-width="0.5" stroke-linecap="round"/><path d="M246.53333,157.80166c0,-1.38071 1.11929,-2.5 2.5,-2.5c0.8341,0 1.5728,0.40849 2.02695,1.03632c1.17731,0.20259 2.07305,1.22853 2.07305,2.46368c0,1.38071 -1.11929,2.5 -2.5,2.5c-0.8341,0 -1.5728,-0.40849 -2.02695,-1.03632c-1.17731,-0.20259 -2.07305,-1.22853 -2.07305,-2.46368zM250.63333,161.30166c1.38071,0 2.5,1.11929 2.5,2.5c0,1.23515 -0.89574,2.2611 -2.07305,2.46368c-0.45415,0.62783 -1.19285,1.03632 -2.02695,1.03632c-0.74124,0 -1.40714,-0.32259 -1.86496,-0.83504c-0.51245,-0.45782 -0.83505,-1.12371 -0.83505,-1.86496c0,-1.36962 1.10137,-2.48199 2.46676,-2.49979c0.45658,-0.4922 1.10894,-0.80022 1.83325,-0.80022z" fill="#ffffff" stroke="none" stroke-width="0.5" stroke-linecap="butt"/><path d="M268.23333,157.20167l14.4,3.6l-14.4,3.8l14.4,-3.6" fill="none" stroke="#ffffff" stroke-width="0.5" stroke-linecap="round"/><path d="M278.41523,162.12927c-1.5248,0.37144 -3.25545,1.67702 -3.76266,0.34669c-0.45478,0.62182 -1.18985,1.02571 -2.01924,1.02571c-0.00614,0 -0.01228,-0.00002 -0.01841,-0.00007c-0.30136,0.12878 -0.63315,0.20006 -0.98159,0.20006c-0.15047,0 -0.29784,-0.01329 -0.44099,-0.03877c-0.43383,0.74105 -1.2383,1.23877 -2.15901,1.23877c-1.38071,0 -2.5,-1.11929 -2.5,-2.5c0,-0.20683 0.02511,-0.40779 0.07246,-0.6c-0.04543,-0.18445 -0.0704,-0.37696 -0.07234,-0.57498c-0.37414,-0.43701 -0.60012,-1.00463 -0.60012,-1.62502c0,-1.38071 1.11929,-2.5 2.5,-2.5c0.62648,0 1.19914,0.23043 1.63783,0.61116c0.2686,0.02535 0.52483,0.0932 0.7619,0.19674c0.06606,-0.00523 0.13286,-0.00791 0.20027,-0.00791c0.62039,0 1.18801,0.22599 1.62502,0.60013c0.45911,0.0045 0.88861,0.13276 1.25674,0.35302l0.50014,0.01925c1.24811,0.31203 2.52897,0.78783 3.8181,0.7776c0,0 0.50192,0 0.68456,0.41061c0.37266,-0.00572 0.7447,-0.01061 1.11544,-0.01061l0.43897,0.25225c0.13739,-0.15474 0.33783,-0.25225 0.56103,-0.25225c0.41422,0 0.75,0.33578 0.75,0.75c0,0.41422 -0.33578,0.75 -0.75,0.75c-0.08691,0 -0.17037,-0.01478 -0.24799,-0.04197c-0.00702,0.00743 -0.01425,0.01487 -0.02168,0.0223c-0.46609,0.46608 -0.93217,0.11293 -1.03825,0.02052c-0.24805,0.00131 -0.49632,0.00399 -0.74472,0.00701c-0.07458,0.44703 -0.56546,0.56974 -0.56546,0.56974z" fill="#ffffff" stroke="none" stroke-width="0.5" stroke-linecap="butt"/><path d="M197.9,185.84167v-13c0,0 14.40343,0 22.33334,0c9.03629,0 29,0 29,0v13z" fill="#ffffff" stroke="none" stroke-width="0" stroke-linecap="butt"/><path d="M247.9,183.175v-8h20.66667v8z" fill="#ffffff" stroke="none" stroke-width="0" stroke-linecap="butt"/><path d="M249.03333,173.40166l6.6,3l-6.6,-3.4" fill="none" stroke="#ffffff" stroke-width="0.5" stroke-linecap="round"/><path d="M249.03333,185.60167l5.6,-3.4" fill="none" stroke="#ffffff" stroke-width="0.5" stroke-linecap="round"/><path d="M246.53333,175.80167c0,-1.38071 1.11929,-2.5 2.5,-2.5c0.8341,0 1.5728,0.40849 2.02695,1.03632c1.17731,0.20259 2.07305,1.22853 2.07305,2.46368c0,1.38071 -1.11929,2.5 -2.5,2.5c-0.8341,0 -1.5728,-0.40849 -2.02695,-1.03632c-1.17731,-0.20259 -2.07305,-1.22853 -2.07305,-2.46368zM250.63333,179.30167c1.38071,0 2.5,1.11929 2.5,2.5c0,1.23515 -0.89574,2.2611 -2.07305,2.46368c-0.45415,0.62783 -1.19285,1.03632 -2.02695,1.03632c-0.74124,0 -1.40714,-0.32259 -1.86496,-0.83504c-0.51245,-0.45782 -0.83505,-1.12371 -0.83505,-1.86496c0,-1.36962 1.10137,-2.48199 2.46676,-2.49979c0.45658,-0.4922 1.10894,-0.80022 1.83325,-0.80022z" fill="#ffffff" stroke="none" stroke-width="0.5" stroke-linecap="butt"/><path d="M268.23333,175.20167l14.4,3.6l-14.4,3.8l14.4,-3.6" fill="none" stroke="#ffffff" stroke-width="0.5" stroke-linecap="round"/><path d="M278.41523,180.12927c-1.5248,0.37144 -3.25545,1.67702 -3.76266,0.34669c-0.45478,0.62182 -1.18985,1.02571 -2.01924,1.02571c-0.00614,0 -0.01228,-0.00002 -0.01841,-0.00007c-0.30136,0.12878 -0.63315,0.20006 -0.98159,0.20006c-0.15047,0 -0.29784,-0.01329 -0.44099,-0.03877c-0.43383,0.74105 -1.2383,1.23877 -2.15901,1.23877c-1.38071,0 -2.5,-1.11929 -2.5,-2.5c0,-0.20683 0.02511,-0.40779 0.07246,-0.6c-0.04543,-0.18445 -0.0704,-0.37696 -0.07234,-0.57498c-0.37414,-0.43701 -0.60012,-1.00463 -0.60012,-1.62502c0,-1.38071 1.11929,-2.5 2.5,-2.5c0.62648,0 1.19914,0.23043 1.63783,0.61116c0.2686,0.02535 0.52483,0.0932 0.7619,0.19674c0.06606,-0.00523 0.13286,-0.00791 0.20027,-0.00791c0.62039,0 1.18801,0.22599 1.62502,0.60013c0.45911,0.0045 0.88861,0.13276 1.25674,0.35302l0.50014,0.01925c1.24811,0.31203 2.52897,0.78783 3.8181,0.7776c0,0 0.50192,0 0.68456,0.41061c0.37266,-0.00572 0.7447,-0.01061 1.11544,-0.01061l0.43897,0.25225c0.13739,-0.15474 0.33783,-0.25225 0.56103,-0.25225c0.41422,0 0.75,0.33578 0.75,0.75c0,0.41422 -0.33578,0.75 -0.75,0.75c-0.08691,0 -0.17037,-0.01478 -0.24799,-0.04197c-0.00702,0.00743 -0.01425,0.01487 -0.02168,0.0223c-0.46609,0.46608 -0.93217,0.11293 -1.03825,0.02052c-0.24805,0.00131 -0.49632,0.00399 -0.74472,0.00701c-0.07458,0.44703 -0.56546,0.56974 -0.56546,0.56974z" fill="#ffffff" stroke="none" stroke-width="0.5" stroke-linecap="butt"/><path d="M197.36667,205.15834v-13c0,0 14.40343,0 22.33334,0c9.03629,0 29,0 29,0v13z" fill="#ffffff" stroke="none" stroke-width="0" stroke-linecap="butt"/><path d="M247.36666,202.49167v-8h20.66667v8z" fill="#ffffff" stroke="none" stroke-width="0" stroke-linecap="butt"/><path d="M248.5,192.71834l6.6,3l-6.6,-3.4" fill="none" stroke="#ffffff" stroke-width="0.5" stroke-linecap="round"/><path d="M248.5,204.91834l5.6,-3.4" fill="none" stroke="#ffffff" stroke-width="0.5" stroke-linecap="round"/><path d="M246,195.11834c0,-1.38071 1.11929,-2.5 2.5,-2.5c0.8341,0 1.5728,0.40849 2.02695,1.03632c1.17731,0.20259 2.07305,1.22853 2.07305,2.46368c0,1.38071 -1.11929,2.5 -2.5,2.5c-0.8341,0 -1.5728,-0.40849 -2.02695,-1.03632c-1.17731,-0.20259 -2.07305,-1.22853 -2.07305,-2.46368zM250.1,198.61834c1.38071,0 2.5,1.11929 2.5,2.5c0,1.23515 -0.89574,2.2611 -2.07305,2.46368c-0.45415,0.62783 -1.19285,1.03632 -2.02695,1.03632c-0.74124,0 -1.40714,-0.3226 -1.86496,-0.83505c-0.51245,-0.45782 -0.83505,-1.12371 -0.83505,-1.86496c0,-1.36962 1.10137,-2.48199 2.46676,-2.49979c0.45658,-0.4922 1.10894,-0.80021 1.83325,-0.80021z" fill="#ffffff" stroke="none" stroke-width="0.5" stroke-linecap="butt"/><path d="M267.7,194.51834l14.4,3.6l-14.4,3.8l14.4,-3.6" fill="none" stroke="#ffffff" stroke-width="0.5" stroke-linecap="round"/><path d="M277.8819,199.44594c-1.5248,0.37144 -3.25546,1.67702 -3.76267,0.34669c-0.45478,0.62182 -1.18984,1.0257 -2.01923,1.0257c-0.00614,0 -0.01228,-0.00002 -0.01841,-0.00007c-0.30136,0.12878 -0.63315,0.20007 -0.98159,0.20007c-0.15047,0 -0.29784,-0.01329 -0.44099,-0.03877c-0.43383,0.74105 -1.2383,1.23877 -2.15901,1.23877c-1.38071,0 -2.5,-1.11929 -2.5,-2.5c0,-0.20683 0.02512,-0.40779 0.07247,-0.6c-0.04543,-0.18445 -0.0704,-0.37696 -0.07234,-0.57498c-0.37414,-0.43701 -0.60012,-1.00463 -0.60012,-1.62502c0,-1.38071 1.11929,-2.5 2.5,-2.5c0.62648,0 1.19914,0.23043 1.63783,0.61116c0.2686,0.02535 0.52483,0.0932 0.76189,0.19674c0.06606,-0.00523 0.13286,-0.0079 0.20027,-0.0079c0.62039,0 1.18801,0.22598 1.62502,0.60012c0.45911,0.0045 0.88862,0.13276 1.25674,0.35302l0.50014,0.01925c1.24811,0.31203 2.52897,0.78783 3.8181,0.7776c0,0 0.50192,0 0.68456,0.41061c0.37266,-0.00572 0.74469,-0.01061 1.11544,-0.01061l0.43897,0.25224c0.13739,-0.15474 0.33782,-0.25224 0.56103,-0.25224c0.41422,0 0.75,0.33578 0.75,0.75c0,0.41422 -0.33578,0.75 -0.75,0.75c-0.08691,0 -0.17036,-0.01479 -0.24799,-0.04197c-0.00702,0.00743 -0.01425,0.01487 -0.02168,0.0223c-0.46609,0.46608 -0.93217,0.11293 -1.03825,0.02052c-0.24805,0.00131 -0.49633,0.00399 -0.74472,0.00701c-0.07458,0.44703 -0.56545,0.56975 -0.56545,0.56975z" fill="#ffffff" stroke="none" stroke-width="0.5" stroke-linecap="butt"/></g></g></svg>