<svg version="1.1" xmlns="http://www.w3.org/2000/svg" xmlns:xlink="http://www.w3.org/1999/xlink" width="462" height="341"><g transform="translate(-11,-6)"><g data-paper-data="{&quot;isPaintingLayer&quot;:true}" fill="none" fill-rule="nonzero" stroke="none" stroke-width="0.5" stroke-linecap="butt" stroke-linejoin="miter" stroke-miterlimit="10" stroke-dasharray="" stroke-dashoffset="0" font-family="none" font-weight="none" font-size="none" text-anchor="none" style="mix-blend-mode: normal"><path d="" fill="#ececec"/><path d="" fill="#ececec"/><path d="" fill="#ececec"/><path d="" fill="#ececec"/><path d="" fill="#ececec"/><path d="" fill="#ececec"/><path d="" fill="#ececec"/><path d="" fill="#ececec"/><path d="" fill="#ececec"/><path d="" fill="#ececec"/><path d="" fill="#ececec"/><path d="" fill="#ececec"/><path d="" fill="#ececec"/><path d="" fill="#ececec"/><path d="" fill="#ececec"/><path d="" fill="#ececec"/><path d="" fill="#ececec"/><path d="" fill="#ececec"/><path d="" fill="#ececec"/><path d="" fill="#ececec"/><path d="" fill="#ececec"/><path d="" fill="#ececec"/><path d="" fill="#ececec"/><path d="" fill="#ececec"/><path d="" fill="#ececec"/><path d="" fill="#ececec"/><path d="" fill="#ececec"/><path d="" fill="#ececec"/><path d="" fill="#ececec"/><path d="" fill="#ececec"/><path d="" fill="#ececec"/><path d="" fill="#ececec"/><path d="" fill="#ececec"/><path d="" fill="#ececec"/><path d="" fill="#ececec"/><path d="" fill="#ececec"/><path d="" fill="#ececec"/><path d="" fill="#ececec"/><path d="" fill="#ececec"/><path d="" fill="#ececec"/><path d="" fill="#ececec"/><path d="" fill="#ececec"/><path d="" fill="#ececec"/><path d="" fill="#ececec"/><path d="" fill="#ececec"/><path d="" fill="#ececec"/><path d="" fill="#ececec"/><path d="" fill="#ececec"/><path d="" fill="#ececec"/><path d="" fill="#ececec"/><path d="" fill="#ececec"/><path d="" fill="#ececec"/><path d="" fill="#ececec"/><path d="" fill="#eeeeee"/><path d="" fill="#eeeeee"/><path d="" fill="#eeeeee"/><path d="" fill="#eeeeee"/><path d="" fill="#eeeeee"/><path d="" fill="#eeeeee"/><path d="" fill="#eeeeee"/><path d="" fill="#eeeeee"/><path d="" fill="#eeeeee"/><path d="" fill="#eeeeee"/><path d="" fill="#eeeeee"/><path d="" fill="#eeeeee"/><path d="" fill="#eeeeee"/><path d="" fill="#eeeeee"/><path d="" fill="#eeeeee"/><path d="" fill="#eeeeee"/><path d="" fill="#eeeeee"/><path d="" fill="#eeeeee"/><path d="" fill="#eeeeee"/><path d="" fill="#eeeeee"/><path d="" fill="#eeeeee"/><path d="" fill="#eeeeee"/><path d="" fill="#eeeeee"/><path d="" fill="#eeeeee"/><path d="" fill="#eeeeee"/><path d="" fill="#eeeeee"/><path d="" fill="#eeeeee"/><path d="" fill="#eeeeee"/><path d="" fill="#eeeeee"/><path d="" fill="#eeeeee"/><path d="" fill="#eeeeee"/><path d="" fill="#eeeeee"/><path d="" fill="#eeeeee"/><path d="" fill="#eeeeee"/><path d="" fill="#eeeeee"/><path d="" fill="#eeeeee"/><path d="" fill="#eeeeee"/><path d="" fill="#eeeeee"/><path d="" fill="#eeeeee"/><path d="" fill="#eeeeee"/><path d="" fill="#eeeeee"/><path d="" fill="#eeeeee"/><path d="" fill="#eeeeee"/><path d="" fill="#eeeeee"/><path d="" fill="#eeeeee"/><path d="" fill="#eeeeee"/><path d="" fill="#eeeeee"/><path d="" fill="#eeeeee"/><path d="" fill="#eeeeee"/><path d="" fill="#eeeeee"/><path d="" fill="#eeeeee"/><path d="" fill="#eeeeee"/><path d="" fill="#eeeeee"/><path d="" fill="#eeeeee"/><path d="" fill="#eeeeee"/><path d="" fill="#eeeeee"/><path d="" fill="#eeeeee"/><path d="" fill="#eeeeee"/><path d="" fill="#eeeeee"/><path d="" fill="#eeeeee"/><path d="" fill="#eeeeee"/><path d="" fill="#eeeeee"/><path d="" fill="#eeeeee"/><path d="" fill="#eeeeee"/><path d="" fill="#eeeeee"/><path d="" fill="#eeeeee"/><path d="" fill="#eeeeee"/><path d="" fill="#eeeeee"/><path d="" fill="#eeeeee"/><path d="" fill="#eeeeee"/><path d="" fill="#eeeeee"/><path d="" fill="#eeeeee"/><path d="" fill="#eeeeee"/><path d="" fill="#eaeaea"/><path d="" fill="#eaeaea"/><path d="" fill="#eaeaea"/><path d="" fill="#eaeaea"/><path d="" fill="#eaeaea"/><path d="" fill="#eaeaea"/><path d="" fill="#eaeaea"/><path d="" fill="#eaeaea"/><path d="" fill="#eaeaea"/><path d="" fill="#eaeaea"/><path d="" fill="#eaeaea"/><path d="" fill="#eaeaea"/><path d="" fill="#eaeaea"/><path d="" fill="#eaeaea"/><path d="" fill="#eaeaea"/><path d="" fill="#eaeaea"/><path d="" fill="#eaeaea"/><path d="" fill="#eaeaea"/><path d="" fill="#eaeaea"/><path d="" fill="#eaeaea"/><path d="" fill="#eaeaea"/><path d="" fill="#eaeaea"/><path d="" fill="#eaeaea"/><path d="" fill="#eaeaea"/><path d="" fill="#eaeaea"/><path d="" fill="#eaeaea"/><path d="" fill="#eaeaea"/><path d="" fill="#eaeaea"/><path d="" fill="#eaeaea"/><path d="" fill="#eaeaea"/><path d="" fill="#eaeaea"/><path d="" fill="#eaeaea"/><path d="" fill="#eaeaea"/><path d="" fill="#eaeaea"/><path d="" fill="#eaeaea"/><path d="" fill="#eaeaea"/><path d="" fill="#ececec"/><path d="" fill="#ececec"/><path d="" fill="#ececec"/><path d="" fill="#ececec"/><path d="" fill="#ececec"/><path d="M221,7c0,-0.55228 0.44772,-1 1,-1c0.55228,0 1,0.44772 1,1c0,0.55228 -0.44772,1 -1,1c-0.55228,0 -1,-0.44772 -1,-1z" fill="#ececec"/><path d="M34,24c0,-0.55228 0.44772,-1 1,-1c0.55228,0 1,0.44772 1,1c0,0.55228 -0.44772,1 -1,1c-0.55228,0 -1,-0.44772 -1,-1z" fill="#ececec"/><path d="M431,35c0,-0.55228 0.44772,-1 1,-1c0.55228,0 1,0.44772 1,1c0,0.55228 -0.44772,1 -1,1c-0.55228,0 -1,-0.44772 -1,-1z" fill="#ececec"/><path d="M163,56c0,-0.55228 0.44772,-1 1,-1c0.55228,0 1,0.44772 1,1c0,0.55228 -0.44772,1 -1,1c-0.55228,0 -1,-0.44772 -1,-1z" fill="#ececec"/><path d="M350,97c0,-0.55228 0.44772,-1 1,-1c0.55228,0 1,0.44772 1,1c0,0.55228 -0.44772,1 -1,1c-0.55228,0 -1,-0.44772 -1,-1z" fill="#ececec"/><path d="M433,159c0,-0.55228 0.44772,-1 1,-1c0.55228,0 1,0.44772 1,1c0,0.55228 -0.44772,1 -1,1c-0.55228,0 -1,-0.44772 -1,-1z" fill="#ececec"/><path d="M433,94c0,-0.55228 0.44772,-1 1,-1c0.55228,0 1,0.44772 1,1c0,0.55228 -0.44772,1 -1,1c-0.55228,0 -1,-0.44772 -1,-1z" fill="#ececec"/><path d="M82,143c0,-0.55228 0.44772,-1 1,-1c0.55228,0 1,0.44772 1,1c0,0.55228 -0.44772,1 -1,1c-0.55228,0 -1,-0.44772 -1,-1z" fill="#ececec"/><path d="M127,108c0,-0.55228 0.44772,-1 1,-1c0.55228,0 1,0.44772 1,1c0,0.55228 -0.44772,1 -1,1c-0.55228,0 -1,-0.44772 -1,-1z" fill="#ececec"/><path d="M228,160c0,-0.55228 0.44772,-1 1,-1c0.55228,0 1,0.44772 1,1c0,0.55228 -0.44772,1 -1,1c-0.55228,0 -1,-0.44772 -1,-1z" fill="#ececec"/><path d="M24,182c0,-0.55228 0.44772,-1 1,-1c0.55228,0 1,0.44772 1,1c0,0.55228 -0.44772,1 -1,1c-0.55228,0 -1,-0.44772 -1,-1z" fill="#ececec"/><path d="M91,229c0,-0.55228 0.44772,-1 1,-1c0.55228,0 1,0.44772 1,1c0,0.55228 -0.44772,1 -1,1c-0.55228,0 -1,-0.44772 -1,-1z" fill="#ececec"/><path d="M14,230c0,-0.55228 0.44772,-1 1,-1c0.55228,0 1,0.44772 1,1c0,0.55228 -0.44772,1 -1,1c-0.55228,0 -1,-0.44772 -1,-1z" fill="#ececec"/><path d="M239,205c0,-0.55228 0.44772,-1 1,-1c0.55228,0 1,0.44772 1,1c0,0.55228 -0.44772,1 -1,1c-0.55228,0 -1,-0.44772 -1,-1z" fill="#ececec"/><path d="M453,224c0,-0.55228 0.44772,-1 1,-1c0.55228,0 1,0.44772 1,1c0,0.55228 -0.44772,1 -1,1c-0.55228,0 -1,-0.44772 -1,-1z" fill="#ececec"/><path d="M355,205c0,-0.55228 0.44772,-1 1,-1c0.55228,0 1,0.44772 1,1c0,0.55228 -0.44772,1 -1,1c-0.55228,0 -1,-0.44772 -1,-1z" fill="#ececec"/><path d="M277,255c0,-0.55228 0.44772,-1 1,-1c0.55228,0 1,0.44772 1,1c0,0.55228 -0.44772,1 -1,1c-0.55228,0 -1,-0.44772 -1,-1z" fill="#ececec"/><path d="M389,270c0,-0.55228 0.44772,-1 1,-1c0.55228,0 1,0.44772 1,1c0,0.55228 -0.44772,1 -1,1c-0.55228,0 -1,-0.44772 -1,-1z" fill="#ececec"/><path d="M471,320c0,-0.55228 0.44772,-1 1,-1c0.55228,0 1,0.44772 1,1c0,0.55228 -0.44772,1 -1,1c-0.55228,0 -1,-0.44772 -1,-1z" fill="#ececec"/><path d="M299,329c0,-0.55228 0.44772,-1 1,-1c0.55228,0 1,0.44772 1,1c0,0.55228 -0.44772,1 -1,1c-0.55228,0 -1,-0.44772 -1,-1z" fill="#ececec"/><path d="M212,267c0,-0.55228 0.44772,-1 1,-1c0.55228,0 1,0.44772 1,1c0,0.55228 -0.44772,1 -1,1c-0.55228,0 -1,-0.44772 -1,-1z" fill="#ececec"/><path d="M125,343c0,-0.55228 0.44772,-1 1,-1c0.55228,0 1,0.44772 1,1c0,0.55228 -0.44772,1 -1,1c-0.55228,0 -1,-0.44772 -1,-1z" fill="#ececec"/><path d="M11,346c0,-0.55228 0.44772,-1 1,-1c0.55228,0 1,0.44772 1,1c0,0.55228 -0.44772,1 -1,1c-0.55228,0 -1,-0.44772 -1,-1z" fill="#ececec"/><path d="M82,296c0,-0.55228 0.44772,-1 1,-1c0.55228,0 1,0.44772 1,1c0,0.55228 -0.44772,1 -1,1c-0.55228,0 -1,-0.44772 -1,-1z" fill="#ececec"/><path d="M142,240c0,-0.55228 0.44772,-1 1,-1c0.55228,0 1,0.44772 1,1c0,0.55228 -0.44772,1 -1,1c-0.55228,0 -1,-0.44772 -1,-1z" fill="#ececec"/></g></g></svg>